HIERARCHY
ROOT mixamorig:Hips
{
	OFFSET -0.000008 104.274872 1.554316
	CHANNELS 6 Xposition Yposition Zposition Xrotation Yrotation Zrotation
	JOINT mixamorig:Spine
	{
		OFFSET -0.000005 10.181595 0.131519
		CHANNELS 6 Xposition Yposition Zposition Xrotation Yrotation Zrotation
		JOINT mixamorig:Spine1
		{
			OFFSET -0.000000 9.893959 -1.470707
			CHANNELS 6 Xposition Yposition Zposition Xrotation Yrotation Zrotation
			JOINT mixamorig:Spine2
			{
				OFFSET -0.000000 9.220757 -1.370641
				CHANNELS 6 Xposition Yposition Zposition Xrotation Yrotation Zrotation
				JOINT mixamorig:Neck
				{
					OFFSET 0.000001 16.740417 -2.049036
					CHANNELS 6 Xposition Yposition Zposition Xrotation Yrotation Zrotation
					JOINT mixamorig:Head
					{
						OFFSET 0.000000 9.617874 1.685006
						CHANNELS 6 Xposition Yposition Zposition Xrotation Yrotation Zrotation
						JOINT mixamorig:HeadTop_End
						{
							OFFSET 0.000002 22.037354 7.501101
							CHANNELS 6 Xposition Yposition Zposition Xrotation Yrotation Zrotation
							End Site
							{
								OFFSET 0.000168 2310.654297 -282.823242
							}
						}
					}
				}
				JOINT mixamorig:RightShoulder
				{
					OFFSET -4.569970 11.014908 -2.160885
					CHANNELS 6 Xposition Yposition Zposition Xrotation Yrotation Zrotation
					JOINT mixamorig:RightArm
					{
						OFFSET -10.592851 -0.524811 -2.232101
						CHANNELS 6 Xposition Yposition Zposition Xrotation Yrotation Zrotation
						JOINT mixamorig:RightForeArm
						{
							OFFSET -27.841511 0.000031 -0.000004
							CHANNELS 6 Xposition Yposition Zposition Xrotation Yrotation Zrotation
							JOINT mixamorig:RightHand
							{
								OFFSET -28.328831 -0.000015 0.000015
								CHANNELS 6 Xposition Yposition Zposition Xrotation Yrotation Zrotation
								JOINT mixamorig:RightHandThumb1
								{
									OFFSET -2.464806 -1.573990 2.681852
									CHANNELS 6 Xposition Yposition Zposition Xrotation Yrotation Zrotation
									JOINT mixamorig:RightHandThumb2
									{
										OFFSET -3.215179 -1.872803 1.924282
										CHANNELS 6 Xposition Yposition Zposition Xrotation Yrotation Zrotation
										JOINT mixamorig:RightHandThumb3
										{
											OFFSET -2.654831 -1.527969 1.512609
											CHANNELS 6 Xposition Yposition Zposition Xrotation Yrotation Zrotation
											JOINT mixamorig:RightHandThumb4
											{
												OFFSET -2.018814 -1.152008 1.108052
												CHANNELS 6 Xposition Yposition Zposition Xrotation Yrotation Zrotation
												End Site
												{
													OFFSET -188.809540 -114.533607 132.431396
												}
											}
										}
									}
								}
								JOINT mixamorig:RightHandIndex1
								{
									OFFSET -9.108284 -0.517868 2.259835
									CHANNELS 6 Xposition Yposition Zposition Xrotation Yrotation Zrotation
									JOINT mixamorig:RightHandIndex2
									{
										OFFSET -3.699989 0.000000 0.001215
										CHANNELS 6 Xposition Yposition Zposition Xrotation Yrotation Zrotation
										JOINT mixamorig:RightHandIndex3
										{
											OFFSET -2.850006 0.000031 -0.000522
											CHANNELS 6 Xposition Yposition Zposition Xrotation Yrotation Zrotation
											JOINT mixamorig:RightHandIndex4
											{
												OFFSET -2.772186 -0.000015 -0.000020
												CHANNELS 6 Xposition Yposition Zposition Xrotation Yrotation Zrotation
												End Site
												{
													OFFSET -277.218445 0.000000 -0.050231
												}
											}
										}
									}
								}
								JOINT mixamorig:RightHandMiddle1
								{
									OFFSET -9.532516 -0.000031 -0.000023
									CHANNELS 6 Xposition Yposition Zposition Xrotation Yrotation Zrotation
									JOINT mixamorig:RightHandMiddle2
									{
										OFFSET -3.700005 -0.000015 0.003713
										CHANNELS 6 Xposition Yposition Zposition Xrotation Yrotation Zrotation
										JOINT mixamorig:RightHandMiddle3
										{
											OFFSET -2.949974 0.000015 -0.002054
											CHANNELS 6 Xposition Yposition Zposition Xrotation Yrotation Zrotation
											JOINT mixamorig:RightHandMiddle4
											{
												OFFSET -2.946640 0.000000 -0.000156
												CHANNELS 6 Xposition Yposition Zposition Xrotation Yrotation Zrotation
												End Site
												{
													OFFSET -294.664337 0.000000 -0.113670
												}
											}
										}
									}
								}
								JOINT mixamorig:RightHandRing1
								{
									OFFSET -9.103600 -0.043076 -1.865134
									CHANNELS 6 Xposition Yposition Zposition Xrotation Yrotation Zrotation
									JOINT mixamorig:RightHandRing2
									{
										OFFSET -3.379288 0.000000 -0.001055
										CHANNELS 6 Xposition Yposition Zposition Xrotation Yrotation Zrotation
										JOINT mixamorig:RightHandRing3
										{
											OFFSET -2.889687 -0.000015 0.000379
											CHANNELS 6 Xposition Yposition Zposition Xrotation Yrotation Zrotation
											JOINT mixamorig:RightHandRing4
											{
												OFFSET -2.638809 -0.000015 0.000941
												CHANNELS 6 Xposition Yposition Zposition Xrotation Yrotation Zrotation
												End Site
												{
													OFFSET -263.880371 0.000000 0.516020
												}
											}
										}
									}
								}
								JOINT mixamorig:RightHandPinky1
								{
									OFFSET -8.076683 -0.486710 -3.806280
									CHANNELS 6 Xposition Yposition Zposition Xrotation Yrotation Zrotation
									JOINT mixamorig:RightHandPinky2
									{
										OFFSET -3.600014 -0.000015 -0.003747
										CHANNELS 6 Xposition Yposition Zposition Xrotation Yrotation Zrotation
										JOINT mixamorig:RightHandPinky3
										{
											OFFSET -2.099983 0.000000 -0.005739
											CHANNELS 6 Xposition Yposition Zposition Xrotation Yrotation Zrotation
											JOINT mixamorig:RightHandPinky4
											{
												OFFSET -2.115768 -0.000031 -0.003680
												CHANNELS 6 Xposition Yposition Zposition Xrotation Yrotation Zrotation
												End Site
												{
													OFFSET -211.577087 0.000000 -0.350686
												}
											}
										}
									}
								}
							}
						}
					}
				}
				JOINT mixamorig:LeftShoulder
				{
					OFFSET 4.570447 11.014725 -2.160855
					CHANNELS 6 Xposition Yposition Zposition Xrotation Yrotation Zrotation
					JOINT mixamorig:LeftArm
					{
						OFFSET 10.592371 -0.524597 -2.232119
						CHANNELS 6 Xposition Yposition Zposition Xrotation Yrotation Zrotation
						JOINT mixamorig:LeftForeArm
						{
							OFFSET 27.841532 -0.000031 0.000026
							CHANNELS 6 Xposition Yposition Zposition Xrotation Yrotation Zrotation
							JOINT mixamorig:LeftHand
							{
								OFFSET 28.328846 -0.000061 0.000022
								CHANNELS 6 Xposition Yposition Zposition Xrotation Yrotation Zrotation
								JOINT mixamorig:LeftHandThumb1
								{
									OFFSET 2.466141 -1.576172 2.681732
									CHANNELS 6 Xposition Yposition Zposition Xrotation Yrotation Zrotation
									JOINT mixamorig:LeftHandThumb2
									{
										OFFSET 3.217812 -1.872070 1.916482
										CHANNELS 6 Xposition Yposition Zposition Xrotation Yrotation Zrotation
										JOINT mixamorig:LeftHandThumb3
										{
											OFFSET 2.656029 -1.528778 1.514513
											CHANNELS 6 Xposition Yposition Zposition Xrotation Yrotation Zrotation
											JOINT mixamorig:LeftHandThumb4
											{
												OFFSET 2.020889 -1.154053 1.115139
												CHANNELS 6 Xposition Yposition Zposition Xrotation Yrotation Zrotation
												End Site
												{
													OFFSET 190.885437 -115.081749 130.048782
												}
											}
										}
									}
								}
								JOINT mixamorig:LeftHandIndex1
								{
									OFFSET 9.109314 -0.518021 2.259871
									CHANNELS 6 Xposition Yposition Zposition Xrotation Yrotation Zrotation
									JOINT mixamorig:LeftHandIndex2
									{
										OFFSET 3.699989 0.000000 -0.000322
										CHANNELS 6 Xposition Yposition Zposition Xrotation Yrotation Zrotation
										JOINT mixamorig:LeftHandIndex3
										{
											OFFSET 2.850006 0.000000 0.000352
											CHANNELS 6 Xposition Yposition Zposition Xrotation Yrotation Zrotation
											JOINT mixamorig:LeftHandIndex4
											{
												OFFSET 2.774864 -0.000031 -0.000027
												CHANNELS 6 Xposition Yposition Zposition Xrotation Yrotation Zrotation
												End Site
												{
													OFFSET 277.486267 0.000000 -0.009857
												}
											}
										}
									}
								}
								JOINT mixamorig:LeftHandMiddle1
								{
									OFFSET 9.533394 0.000061 0.000044
									CHANNELS 6 Xposition Yposition Zposition Xrotation Yrotation Zrotation
									JOINT mixamorig:LeftHandMiddle2
									{
										OFFSET 3.699989 -0.000015 -0.000231
										CHANNELS 6 Xposition Yposition Zposition Xrotation Yrotation Zrotation
										JOINT mixamorig:LeftHandMiddle3
										{
											OFFSET 2.949997 -0.000015 -0.000059
											CHANNELS 6 Xposition Yposition Zposition Xrotation Yrotation Zrotation
											JOINT mixamorig:LeftHandMiddle4
											{
												OFFSET 2.952896 0.000031 0.000063
												CHANNELS 6 Xposition Yposition Zposition Xrotation Yrotation Zrotation
												End Site
												{
													OFFSET 295.289337 0.000000 0.022810
												}
											}
										}
									}
								}
								JOINT mixamorig:LeftHandRing1
								{
									OFFSET 9.104523 -0.042999 -1.865074
									CHANNELS 6 Xposition Yposition Zposition Xrotation Yrotation Zrotation
									JOINT mixamorig:LeftHandRing2
									{
										OFFSET 3.150009 -0.000031 0.000043
										CHANNELS 6 Xposition Yposition Zposition Xrotation Yrotation Zrotation
										JOINT mixamorig:LeftHandRing3
										{
											OFFSET 2.949982 -0.000015 0.000040
											CHANNELS 6 Xposition Yposition Zposition Xrotation Yrotation Zrotation
											JOINT mixamorig:LeftHandRing4
											{
												OFFSET 2.644348 0.000000 0.000057
												CHANNELS 6 Xposition Yposition Zposition Xrotation Yrotation Zrotation
												End Site
												{
													OFFSET 264.434631 0.000000 0.012105
												}
											}
										}
									}
								}
								JOINT mixamorig:LeftHandPinky1
								{
									OFFSET 8.077789 -0.486847 -3.806259
									CHANNELS 6 Xposition Yposition Zposition Xrotation Yrotation Zrotation
									JOINT mixamorig:LeftHandPinky2
									{
										OFFSET 3.599953 0.000031 0.014727
										CHANNELS 6 Xposition Yposition Zposition Xrotation Yrotation Zrotation
										JOINT mixamorig:LeftHandPinky3
										{
											OFFSET 2.100021 0.000015 0.007705
											CHANNELS 6 Xposition Yposition Zposition Xrotation Yrotation Zrotation
											JOINT mixamorig:LeftHandPinky4
											{
												OFFSET 2.125504 0.000031 0.007517
												CHANNELS 6 Xposition Yposition Zposition Xrotation Yrotation Zrotation
												End Site
												{
													OFFSET 212.550781 0.000000 0.625752
												}
											}
										}
									}
								}
							}
						}
					}
				}
			}
		}
	}
	JOINT mixamorig:RightUpLeg
	{
		OFFSET -8.207787 -6.751648 -1.599560
		CHANNELS 6 Xposition Yposition Zposition Xrotation Yrotation Zrotation
		JOINT mixamorig:RightLeg
		{
			OFFSET -0.000002 -44.370117 0.345942
			CHANNELS 6 Xposition Yposition Zposition Xrotation Yrotation Zrotation
			JOINT mixamorig:RightFoot
			{
				OFFSET 0.000003 -44.423679 -3.043532
				CHANNELS 6 Xposition Yposition Zposition Xrotation Yrotation Zrotation
				JOINT mixamorig:RightToeBase
				{
					OFFSET -0.000002 -8.728671 10.710558
					CHANNELS 6 Xposition Yposition Zposition Xrotation Yrotation Zrotation
					JOINT mixamorig:RightToe_End
					{
						OFFSET -0.000001 -0.000679 9.278119
						CHANNELS 6 Xposition Yposition Zposition Xrotation Yrotation Zrotation
						End Site
						{
							OFFSET 0.000000 -0.067690 927.812134
						}
					}
				}
			}
		}
	}
	JOINT mixamorig:LeftUpLeg
	{
		OFFSET 8.207793 -6.751686 -1.599556
		CHANNELS 6 Xposition Yposition Zposition Xrotation Yrotation Zrotation
		JOINT mixamorig:LeftLeg
		{
			OFFSET -0.000004 -44.370014 0.346954
			CHANNELS 6 Xposition Yposition Zposition Xrotation Yrotation Zrotation
			JOINT mixamorig:LeftFoot
			{
				OFFSET -0.000001 -44.423672 -3.044401
				CHANNELS 6 Xposition Yposition Zposition Xrotation Yrotation Zrotation
				JOINT mixamorig:LeftToeBase
				{
					OFFSET -0.000002 -8.728669 10.710558
					CHANNELS 6 Xposition Yposition Zposition Xrotation Yrotation Zrotation
					JOINT mixamorig:LeftToe_End
					{
						OFFSET -0.000003 -0.000679 9.278133
						CHANNELS 6 Xposition Yposition Zposition Xrotation Yrotation Zrotation
						End Site
						{
							OFFSET 0.000000 -0.068021 927.813477
						}
					}
				}
			}
		}
	}
}
MOTION
Frames: 3
Frame Time: 0.033333
0.000006 104.270477 1.554256 0.000010 0.000003 -0.000113 -0.000005 10.181587 0.131522 0.000001 -0.000003 0.000084 -0.000000 9.893967 -1.470711 0.000001 0.000000 -0.000000 -0.000000 9.220802 -1.370642 0.000000 -0.000000 -0.000000 0.000001 16.740433 -2.049030 0.000000 -0.000000 -0.000000 0.000000 9.617859 1.685014 0.000000 0.000000 0.000000 0.000002 22.037384 7.501101 0.000000 -0.000000 0.000000 -4.569968 11.014880 -2.160881 0.000008 0.000001 -0.000038 -10.592744 -0.524853 -2.231720 89.358996 70.851560 -70.247171 -27.841465 0.000009 0.000601 32.439994 107.368320 -43.186344 -28.328829 0.000021 0.000033 -0.000319 -0.000044 0.000007 -2.464883 -1.573665 2.682200 -218.666375 32.147026 -330.557059 -3.214946 -1.872384 1.924601 125.164719 14.454893 111.347527 -2.654917 -1.527720 1.512989 -28.384419 -216.020469 220.301222 -2.018830 -1.152010 1.108058 -0.000007 0.000005 0.000003 -9.108225 -0.517872 2.260412 167.235447 22.582320 -121.704614 -3.699939 -0.000011 0.001790 160.466197 26.776553 -108.155069 -2.850036 0.000057 0.000030 158.005362 22.695610 -91.839564 -2.772159 -0.000014 -0.000021 -0.000002 -0.000000 -0.000002 -9.532480 -0.000036 0.000547 165.306438 21.841082 -113.177341 -3.700005 0.000012 0.004285 159.767072 25.415076 -102.906861 -2.950056 0.000033 -0.001514 160.739800 19.986694 -92.128071 -2.946623 -0.000001 -0.000151 -0.000002 0.000000 -0.000001 -9.103550 -0.043064 -1.864560 165.698641 22.787403 -115.985983 -3.379316 0.000017 -0.000481 155.941961 20.271991 -80.068566 -2.889719 0.000089 0.000931 156.043103 15.484746 -65.530720 -2.638812 -0.000013 0.000942 -0.000000 -0.000001 0.000001 -8.076561 -0.486677 -3.805688 172.343636 28.742778 -150.180738 -3.600015 -0.000038 -0.003187 159.916230 18.861415 -84.509589 -2.100004 0.000024 -0.005192 155.046824 14.160086 -57.532329 -2.115776 -0.000055 -0.003680 0.000001 0.000001 -0.000003 4.570446 11.014691 -2.160851 -0.000018 0.000010 -0.000021 10.592525 -0.524570 -2.232380 67.742704 -71.494063 51.577514 27.841787 -0.000043 -0.000125 208.174126 -79.231581 213.731277 28.328842 -0.000014 0.000016 0.000022 -0.000089 -0.000001 2.465939 -1.576132 2.681890 133.943466 387.392702 187.139998 3.217459 -1.871813 1.916502 124.397238 353.169957 -124.761383 2.655686 -1.528675 1.514624 129.280946 364.023128 -148.182962 2.020891 -1.154078 1.115151 -0.000000 0.000002 0.000003 9.109426 -0.517805 2.259796 -236.887790 -22.224968 39.838393 3.700114 0.000150 -0.000378 -239.652159 -27.085356 45.609152 2.850128 0.000219 0.000271 -56.916127 -158.067106 219.342250 2.774880 -0.000046 -0.000029 0.000001 -0.000001 -0.000000 9.533497 0.000283 -0.000046 -242.818990 -18.013929 29.089021 3.700088 0.000229 -0.000352 -244.506238 -17.308727 27.117384 2.950108 0.000198 -0.000159 -247.379452 -18.570596 27.563420 2.952864 -0.000046 0.000070 -0.000002 0.000000 0.000001 9.104632 -0.042768 -1.865185 -241.824077 -18.260919 30.053024 3.150038 0.000290 -0.000083 -244.983039 -9.102439 14.251646 2.950030 0.000236 -0.000072 -243.121622 -10.255021 16.624843 2.644324 0.000016 0.000063 -0.000001 0.000000 0.000000 8.077911 -0.486649 -3.806355 -420.595563 -158.202098 -142.499179 3.600002 0.000326 0.014597 -239.599184 -9.501459 17.373421 2.100083 0.000301 0.007571 -244.496484 -8.521300 14.206601 2.125507 -0.000015 0.007517 0.000002 0.000001 -0.000001 -8.207786 -6.751667 -1.599560 -0.077001 -0.000003 0.000080 -0.000002 -44.370110 0.345938 0.153719 -0.000000 -0.000000 0.000000 -44.423679 -3.043532 -0.076700 0.000000 -0.000002 -0.000006 -8.728667 10.710559 -0.000009 -0.000000 -0.000000 -0.000001 -0.000679 9.278123 0.000000 -0.000000 -0.000000 8.207792 -6.751710 -1.599556 -0.074518 -0.000003 0.000081 -0.000002 -44.370014 0.346960 0.148822 0.000002 0.000000 -0.000001 -44.423664 -3.044403 -0.074314 0.000000 -0.000002 -0.000004 -8.728671 10.710558 0.000007 -0.000000 -0.000000 0.000000 -0.000680 9.278137 -0.000000 0.000000 -0.000001 
0.000006 104.270477 1.554256 0.000010 0.000003 -0.000113 -0.000005 10.181587 0.131522 0.000001 -0.000003 0.000084 -0.000000 9.893967 -1.470711 0.000001 0.000000 -0.000000 -0.000000 9.220802 -1.370642 0.000000 -0.000000 -0.000000 0.000001 16.740433 -2.049030 0.000000 -0.000000 -0.000000 0.000000 9.617859 1.685014 0.000000 0.000000 0.000000 0.000002 22.037384 7.501101 0.000000 -0.000000 0.000000 -4.569968 11.014880 -2.160881 0.000008 0.000001 -0.000038 -10.592744 -0.524849 -2.231720 88.037259 71.264124 -69.415575 -27.841461 0.000003 0.000601 29.543734 107.348546 -39.458478 -28.328835 0.000036 0.000033 -0.000321 -0.000045 0.000006 -2.464861 -1.573651 2.682200 -219.515409 32.552289 -322.453777 -3.214883 -1.872412 1.924606 124.269022 9.518129 119.101779 -2.654822 -1.527653 1.512993 -41.456188 -211.734949 252.672521 -2.018819 -1.151997 1.108063 -0.000004 0.000002 0.000005 -9.108175 -0.517898 2.260423 172.442127 20.846835 -140.742564 -3.699873 -0.000022 0.001799 166.797782 24.542997 -123.860536 -2.849988 0.000006 0.000026 165.299102 20.910102 -110.082439 -2.772154 -0.000016 -0.000026 -0.000002 0.000000 -0.000001 -9.532393 -0.000086 0.000563 171.236408 20.471643 -134.774331 -3.699973 -0.000026 0.004297 164.030627 22.968511 -110.309235 -2.950000 0.000001 -0.001492 166.044330 18.052340 -104.731136 -2.946633 0.000015 -0.000157 0.000000 0.000000 0.000000 -9.103485 -0.043087 -1.864535 171.525612 21.858344 -137.796266 -3.379254 0.000014 -0.000494 159.769886 18.434443 -84.668213 -2.889728 0.000020 0.000941 160.214723 13.430665 -68.321925 -2.638800 0.000014 0.000941 -0.000001 0.000000 -0.000001 -8.076537 -0.486664 -3.805673 176.939028 27.807502 -167.152064 -3.600009 -0.000047 -0.003190 161.299835 16.876504 -82.039028 -2.099988 0.000034 -0.005204 156.318646 11.660018 -50.780261 -2.115772 -0.000056 -0.003682 -0.000001 -0.000001 -0.000005 4.570446 11.014691 -2.160851 -0.000018 0.000010 -0.000021 10.592529 -0.524568 -2.232382 68.467216 -72.177956 52.762706 27.841791 -0.000033 -0.000136 205.208539 -79.774718 209.957187 28.328831 -0.000029 0.000015 0.000018 -0.000089 0.000001 2.465923 -1.576159 2.681895 132.538195 395.019455 190.472761 3.217458 -1.871884 1.916501 123.948604 365.212838 -136.616009 2.655715 -1.528761 1.514625 136.123307 381.916721 -170.221469 2.020895 -1.154067 1.115140 0.000003 0.000003 0.000004 9.109407 -0.517749 2.259798 -233.165501 -15.809774 30.992158 3.700099 0.000210 -0.000407 -233.586924 -19.834080 38.227869 2.850111 0.000241 0.000274 -52.924025 -160.956085 217.243538 2.774894 0.000000 -0.000025 0.000000 -0.000000 0.000000 9.533479 0.000341 -0.000035 -232.213591 -10.855796 21.929606 3.700110 0.000248 -0.000318 -233.262134 -14.223340 27.938593 2.950119 0.000232 -0.000140 -232.421338 -17.483607 34.698778 2.952873 -0.000015 0.000064 -0.000000 0.000000 0.000000 9.104597 -0.042721 -1.865166 -229.756909 -9.649748 20.636515 3.149997 0.000363 -0.000059 -231.437736 0.513518 -1.062951 2.950029 0.000303 -0.000033 -226.297431 -5.203505 12.137443 2.644320 0.000046 0.000061 0.000000 -0.000000 -0.000001 8.077851 -0.486559 -3.806342 -408.462115 -172.252371 -161.677312 3.599873 0.000437 0.014647 -217.364705 6.225689 -17.264558 2.099983 0.000415 0.007654 -211.805901 1.342123 -3.334267 2.125499 -0.000001 0.007503 -0.000001 -0.000001 -0.000001 -8.207786 -6.751667 -1.599560 -0.077001 -0.000003 0.000080 -0.000002 -44.370110 0.345938 0.153719 -0.000000 -0.000000 0.000000 -44.423679 -3.043532 -0.076700 0.000000 -0.000002 -0.000006 -8.728667 10.710559 -0.000009 -0.000000 -0.000000 -0.000001 -0.000679 9.278123 0.000000 -0.000000 -0.000000 8.207792 -6.751710 -1.599556 -0.074518 -0.000003 0.000081 -0.000002 -44.370014 0.346960 0.148822 0.000002 0.000000 -0.000001 -44.423664 -3.044403 -0.074314 0.000000 -0.000002 -0.000004 -8.728671 10.710558 0.000007 -0.000000 -0.000000 0.000000 -0.000680 9.278137 -0.000000 0.000000 -0.000001 
0.000006 104.270477 1.554256 0.000010 0.000003 -0.000113 -0.000005 10.181587 0.131522 0.000001 -0.000003 0.000084 -0.000000 9.893967 -1.470711 0.000001 0.000000 -0.000000 -0.000000 9.220802 -1.370642 0.000000 -0.000000 -0.000000 0.000001 16.740433 -2.049030 0.000000 -0.000000 -0.000000 0.000000 9.617859 1.685014 0.000000 0.000000 0.000000 0.000002 22.037384 7.501101 0.000000 -0.000000 0.000000 -4.569968 11.014880 -2.160881 0.000008 0.000001 -0.000038 -10.592749 -0.524855 -2.231725 88.826692 68.947099 -67.856154 -27.841423 0.000021 0.000615 26.638277 113.210611 -39.507600 -28.328829 0.000021 0.000034 -0.000325 -0.000043 0.000007 -2.464884 -1.573677 2.682210 -215.691500 32.929742 -332.402330 -3.214982 -1.872393 1.924604 127.828589 20.964086 102.398319 -2.654940 -1.527755 1.513020 -22.999866 -216.417126 210.502646 -2.018823 -1.151987 1.108081 0.000000 -0.000006 0.000004 -9.108229 -0.517885 2.260409 168.791815 21.955209 -126.565386 -3.699917 -0.000033 0.001821 164.363134 25.984509 -118.381112 -2.850011 0.000036 0.000034 162.411899 21.627231 -101.985345 -2.772172 -0.000031 -0.000019 0.000002 -0.000000 0.000000 -9.532452 -0.000057 0.000540 167.598048 20.000406 -117.477642 -3.699997 -0.000017 0.004280 162.173963 24.510901 -107.929433 -2.950009 0.000005 -0.001507 162.329868 19.984022 -97.124102 -2.946633 -0.000015 -0.000151 -0.000000 -0.000000 0.000000 -9.103530 -0.043074 -1.864548 168.020509 20.972893 -120.677599 -3.379284 -0.000010 -0.000493 159.128299 19.338456 -85.626803 -2.889707 0.000052 0.000932 157.677267 15.530108 -69.536838 -2.638815 0.000011 0.000933 -0.000001 -0.000001 -0.000001 -8.076524 -0.486680 -3.805694 175.618807 26.544391 -161.005467 -3.600023 -0.000023 -0.003188 160.023054 17.081239 -78.998152 -2.100009 0.000042 -0.005197 153.865379 13.022777 -51.326877 -2.115771 -0.000055 -0.003680 -0.000001 -0.000004 -0.000005 4.570446 11.014691 -2.160851 -0.000018 0.000010 -0.000021 10.592530 -0.524562 -2.232383 69.084474 -69.674022 51.197083 27.841784 -0.000045 -0.000131 208.419903 -77.331989 215.121043 28.328833 -0.000029 0.000020 0.000021 -0.000088 -0.000000 2.466016 -1.576146 2.681896 150.962480 401.207197 159.374596 3.217575 -1.872049 1.916552 143.041059 394.574510 -185.587646 2.655843 -1.528822 1.514637 153.370832 395.362686 -201.315823 2.020891 -1.154082 1.115145 0.000004 0.000003 0.000002 9.109241 -0.518019 2.259968 -183.449073 -32.059726 167.997559 3.699845 -0.000033 -0.000209 -178.149556 -35.048723 185.897942 2.849776 0.000065 0.000477 9.636694 -152.471324 37.975107 2.774877 -0.000035 -0.000024 -0.000000 0.000000 -0.000002 9.533342 0.000022 0.000116 -186.342915 -24.889013 151.772705 3.699841 -0.000023 -0.000125 -179.756277 -26.881576 181.010176 2.949778 0.000066 0.000058 -172.374017 -23.719685 -144.777020 2.952867 -0.000021 0.000063 -0.000000 0.000000 -0.000001 9.104492 -0.043018 -1.864999 -186.894890 -33.383513 157.286634 3.149640 0.000186 0.000164 -172.831749 -15.454727 -130.437980 2.949630 0.000366 0.000187 -164.484397 -14.493180 -86.052461 2.644331 0.000030 0.000044 -0.000001 0.000002 0.000001 8.077733 -0.486878 -3.806150 -368.072802 -113.914421 -11.626877 3.599645 0.000314 0.014875 -163.856334 -15.705135 -88.391500 2.099808 0.000399 0.007883 -155.555591 -12.932828 -55.874069 2.125511 -0.000002 0.007513 0.000001 0.000000 0.000000 -8.207786 -6.751667 -1.599560 -0.077001 -0.000003 0.000080 -0.000002 -44.370110 0.345938 0.153719 -0.000000 -0.000000 0.000000 -44.423679 -3.043532 -0.076700 0.000000 -0.000002 -0.000006 -8.728667 10.710559 -0.000009 -0.000000 -0.000000 -0.000001 -0.000679 9.278123 0.000000 -0.000000 -0.000000 8.207792 -6.751710 -1.599556 -0.074518 -0.000003 0.000081 -0.000002 -44.370014 0.346960 0.148822 0.000002 0.000000 -0.000001 -44.423664 -3.044403 -0.074314 0.000000 -0.000002 -0.000004 -8.728671 10.710558 0.000007 -0.000000 -0.000000 0.000000 -0.000680 9.278137 -0.000000 0.000000 -0.000001 
